<svg id="Layer_1" data-name="Layer 1" xmlns="http://www.w3.org/2000/svg" viewBox="0 0 100 125"><defs><style>.cls-1{fill:#60b9ed;}</style></defs><path class="cls-1" d="M12.12,15A7.17,7.17,0,0,0,5,22.12V77.88A7.17,7.17,0,0,0,12.12,85H67.88A7.17,7.17,0,0,0,75,77.88V60.28L94.12,41.19a3,3,0,0,0,0-4.25h0l-9.06-9.06a3,3,0,0,0-4.25,0L75,33.69V22.12A7.17,7.17,0,0,0,67.88,15Zm0,6H67.88A1,1,0,0,1,69,22.12v17.6L51.88,56.88A3,3,0,0,0,51,59v9a3,3,0,0,0,3,3h9a3,3,0,0,0,2.12-.88L69,66.25V77.88A1,1,0,0,1,67.88,79H12.12A1,1,0,0,1,11,77.88V22.12A1,1,0,0,1,12.12,21Zm7.57,8A3,3,0,1,0,20,35H60a3,3,0,0,0,.08-6H20A1.61,1.61,0,0,0,19.69,29Zm63.25,5.25,4.81,4.81-3.22,3.22-4.81-4.81ZM19.69,41A3,3,0,1,0,20,47H55a3,3,0,1,0,.08-6H19.69Zm55.78.72,4.81,4.81L61.75,65H57V60.25ZM19.69,53A3,3,0,1,0,20,59H44a3,3,0,1,0,.08-6H19.69Zm0,12A3,3,0,1,0,20,71H44a3,3,0,0,0,.08-6H20A1.61,1.61,0,0,0,19.69,65Z"/></svg>