<svg id="Layer_1" data-name="Layer 1" xmlns="http://www.w3.org/2000/svg" viewBox="0 0 100 125"><defs><style>.cls-1{fill:#60b9ed;}</style></defs><path class="cls-1" d="M78.6,17.7H75.5V14.3a3.9,3.9,0,0,0-3.8-4h-.2a4,4,0,0,0-4,4v3.4h-35V14.3a4,4,0,0,0-4-4,3.9,3.9,0,0,0-4,3.8v3.6H21.4a12,12,0,0,0-12,12v48a12,12,0,0,0,12,12H78.6a12,12,0,0,0,12-12v-48A12,12,0,0,0,78.6,17.7Zm-57.2,8h3.1v1.8a3.9,3.9,0,0,0,3.8,4h.2a4,4,0,0,0,4-4h0V25.7h35v1.8a4,4,0,0,0,4,4,3.9,3.9,0,0,0,4-3.8v-2h3.1a4,4,0,0,1,4,4v5.4H17.4V29.7A4,4,0,0,1,21.4,25.7Zm57.2,56H21.4a4,4,0,0,1-4-4V43.1H82.6V77.7A4,4,0,0,1,78.6,81.7Z"/><path class="cls-1" d="M62.2,50.7,45.8,65.2l-6.6-6.8A4,4,0,0,0,33.4,64h0l9.3,9.5a4,4,0,0,0,2.9,1.2,4.2,4.2,0,0,0,2.6-1l19.3-17a4,4,0,1,0-5.3-6Z"/></svg>