<svg id="Layer_1" data-name="Layer 1" xmlns="http://www.w3.org/2000/svg" viewBox="0 0 8.47 10.58"><defs><style>.cls-1{fill:#60b9ed;}</style></defs><path class="cls-1" d="M5.82.79H1.06a.26.26,0,0,0-.27.26h0V6.62a1.06,1.06,0,0,0,1.06,1H6.62a.14.14,0,0,0,.09,0,1,1,0,0,0,1-1V4.5a.26.26,0,0,0-.26-.26H6.09V1.06A.28.28,0,0,0,5.83.79Zm-4.5.54H5.56V4.45a.14.14,0,0,0,0,.09V6.62a1,1,0,0,0,.15.53H1.85a.53.53,0,0,1-.53-.53Zm.77,1a.28.28,0,0,0-.25.29.27.27,0,0,0,.28.24H4.76A.25.25,0,0,0,5,2.65a.27.27,0,0,0-.26-.27H2.09Zm0,1.06a.27.27,0,0,0-.25.28A.26.26,0,0,0,2.12,4H4.76a.27.27,0,1,0,0-.53H2.09Zm0,1.06a.27.27,0,1,0,0,.53H4.76A.26.26,0,0,0,5,4.77a.25.25,0,0,0-.26-.27H2.12Zm4,.27h1V6.62a.53.53,0,0,1-.52.53h0a.52.52,0,0,1-.52-.53Zm-4,.79h0a.25.25,0,0,0-.24.28.27.27,0,0,0,.27.25H4.76A.26.26,0,0,0,5,5.83a.25.25,0,0,0-.26-.27H2.09Z"/></svg>